<svg aria-hidden="true" style="position: absolute; width: 0; height: 0; overflow: hidden;" version="1.1" xmlns="http://www.w3.org/2000/svg" xmlns:xlink="http://www.w3.org/1999/xlink">
<defs>
<symbol id="icon-close-menu" viewBox="0 0 32 32">
<path stroke-linejoin="round" stroke-linecap="round" stroke-miterlimit="4" stroke-width="2.6667" d="M2.667 2.237l26.667 26.667M2.667 28.904l26.667-26.667"></path>
</symbol>
<symbol id="icon-menu-burger" viewBox="0 0 32 32">
<path stroke-linejoin="round" stroke-linecap="round" stroke-miterlimit="4" stroke-width="0.8" d="M6.4 9.601h19.2M6.4 16.001h19.2M6.4 22.401h19.2"></path>
</symbol>
<symbol id="icon-arrow-top" viewBox="0 0 25 32">
<path fill="none" stroke="#fff" style="stroke: var(--color1, #fff)" stroke-linejoin="round" stroke-linecap="round" stroke-miterlimit="4" stroke-width="3.3684" d="M12.632 3.743v25.85"></path>
<path fill="none" stroke="#fff" style="stroke: var(--color1, #fff)" stroke-linejoin="round" stroke-linecap="round" stroke-miterlimit="4" stroke-width="3.3684" d="M22.737 13.437l-9.415-10.99c-0.086-0.1-0.192-0.181-0.311-0.236s-0.248-0.084-0.378-0.084c-0.13 0-0.259 0.029-0.378 0.084s-0.225 0.136-0.311 0.236l-9.417 10.99"></path>
</symbol>
<symbol id="icon-instagram" viewBox="0 0 32 32">
<path fill="#fff" style="fill: var(--color1, #fff)" d="M23.734 9.864c0.99 0 1.792-0.802 1.792-1.792s-0.802-1.792-1.792-1.792c-0.99 0-1.792 0.802-1.792 1.792s0.802 1.792 1.792 1.792z"></path>
<path fill="#fff" style="fill: var(--color1, #fff)" d="M8.542 15.739c0 4.118 3.349 7.467 7.467 7.467s7.467-3.349 7.467-7.467c0-4.118-3.349-7.467-7.467-7.467s-7.467 3.349-7.467 7.467zM12.282 15.739c0-2.059 1.674-3.733 3.733-3.733s3.733 1.674 3.733 3.733c0 2.059-1.674 3.733-3.733 3.733s-3.733-1.674-3.733-3.733z"></path>
<path fill="#fff" style="fill: var(--color1, #fff)" d="M8.533 30.674h14.933c3.838 0 7.467-3.629 7.467-7.467v-14.933c0-3.838-3.629-7.467-7.467-7.467h-14.933c-3.838 0-7.467 3.629-7.467 7.467v14.933c0 3.838 3.629 7.467 7.467 7.467zM4.807 8.274c0-1.745 1.988-3.733 3.733-3.733h14.933c1.745 0 3.733 1.988 3.733 3.733v14.933c0 1.745-1.988 3.733-3.733 3.733h-14.933c-1.779 0-3.733-1.954-3.733-3.733v-14.933z"></path>
</symbol>
<symbol id="icon-viber" viewBox="0 0 30 32">
<path fill="#fff" style="fill: var(--color1, #fff)" d="M24.127 7.625c-1.161-1.173-2.544-2.103-4.069-2.736s-3.16-0.956-4.81-0.95c-6.916 0-12.553 5.637-12.553 12.553 0 2.217 0.583 4.37 1.672 6.27l-1.773 6.511 6.65-1.748c1.837 1.001 3.901 1.533 6.004 1.533 6.916 0 12.553-5.637 12.553-12.553 0-3.357-1.305-6.511-3.673-8.879zM15.248 26.929c-1.875 0-3.711-0.507-5.32-1.457l-0.38-0.228-3.952 1.039 1.051-3.851-0.253-0.393c-1.042-1.663-1.595-3.586-1.596-5.548 0-5.751 4.687-10.437 10.437-10.437 2.787 0 5.409 1.089 7.372 3.065 0.972 0.968 1.743 2.119 2.267 3.386s0.791 2.627 0.786 3.998c0.025 5.751-4.661 10.425-10.412 10.425zM20.973 19.126c-0.317-0.152-1.862-0.912-2.141-1.026-0.291-0.101-0.494-0.152-0.709 0.152-0.215 0.317-0.811 1.026-0.988 1.229-0.177 0.215-0.367 0.241-0.684 0.076-0.317-0.152-1.33-0.494-2.521-1.558-0.937-0.836-1.558-1.862-1.748-2.179-0.177-0.317-0.025-0.481 0.139-0.646 0.139-0.139 0.317-0.367 0.469-0.545s0.215-0.317 0.317-0.519c0.101-0.215 0.051-0.393-0.025-0.545s-0.709-1.697-0.963-2.331c-0.253-0.608-0.519-0.532-0.709-0.545h-0.608c-0.215 0-0.545 0.076-0.836 0.393-0.279 0.317-1.089 1.077-1.089 2.622s1.127 3.040 1.279 3.243c0.152 0.215 2.217 3.382 5.358 4.737 0.747 0.329 1.33 0.519 1.786 0.659 0.747 0.241 1.431 0.203 1.976 0.127 0.608-0.089 1.862-0.76 2.115-1.495 0.266-0.735 0.266-1.355 0.177-1.495s-0.279-0.203-0.595-0.355z"></path>
</symbol>
<symbol id="icon-facebook" viewBox="0 0 14 32">
<path fill="#fff" style="fill: var(--color1, #fff)" d="M3.101 31.647v-15.001h-3.101v-5.17h3.101v-3.104c0-4.217 1.751-6.725 6.727-6.725h4.142v5.17h-2.589c-1.937 0-2.065 0.722-2.065 2.071l-0.007 2.587h4.691l-0.549 5.17h-4.142v15.002h-6.208z"></path>
</symbol>
<symbol id="icon-call" viewBox="0 0 32 32">
<path fill="#eaeaea" style="fill: var(--color2, #eaeaea)" d="M22.469 19.446v2.514c0 0.18-0.068 0.353-0.191 0.485s-0.291 0.212-0.47 0.225c-0.311 0.021-0.565 0.033-0.761 0.033-6.284 0-11.378-5.094-11.378-11.378 0-0.196 0.011-0.45 0.033-0.761 0.013-0.18 0.093-0.348 0.225-0.47s0.305-0.191 0.485-0.191h2.514c0.088-0 0.173 0.033 0.239 0.092s0.107 0.14 0.115 0.228c0.016 0.164 0.031 0.294 0.046 0.393 0.141 0.986 0.431 1.945 0.859 2.845 0.068 0.142 0.023 0.312-0.105 0.403l-1.535 1.097c0.938 2.186 2.681 3.929 4.867 4.867l1.095-1.532c0.045-0.063 0.11-0.107 0.185-0.127s0.153-0.012 0.223 0.021c0.9 0.427 1.858 0.716 2.844 0.857 0.099 0.014 0.229 0.029 0.391 0.045 0.088 0.009 0.169 0.050 0.228 0.116s0.091 0.15 0.091 0.238z"></path>
</symbol>
<symbol id="icon-mail" viewBox="0 0 32 32">
<path fill="#eaeaea" style="fill: var(--color2, #eaeaea)" d="M22.736 10.969h-13.333v10.667h13.333v-10.667zM21.403 13.636l-5.333 3.333-5.333-3.333v-1.333l5.333 3.333 5.333-3.333v1.333z"></path>
</symbol>
<symbol id="icon-arrow-right" viewBox="0 0 31 32">
<path stroke-linejoin="round" stroke-linecap="round" stroke-miterlimit="4" stroke-width="0.5818" d="M18.669 20.715l4.19-4.209 0.623-0.59M23.482 15.917l-15.546-0M23.482 15.917l-4.813-4.795"></path>
</symbol>
<symbol id="icon-arrow-left" viewBox="0 0 31 32">
<path stroke-linejoin="round" stroke-linecap="round" stroke-miterlimit="4" stroke-width="0.5818" d="M12.749 20.715l-4.19-4.209-0.623-0.59M7.936 15.917l15.546-0M7.936 15.917l4.813-4.795"></path>
</symbol>
<symbol id="icon-shoper" viewBox="0 0 40 32">
<path d="M5.551 32l-5.551-19.478h11.233l8.303-12.522 8.229 12.522h11.258l-5.629 19.478h-27.843zM6.85 30.052h25.321l4.285-15.582h-33.891l4.285 15.582zM19.511 24.209c0.522 0 0.977-0.194 1.365-0.582 0.388-0.39 0.582-0.845 0.582-1.365s-0.194-0.976-0.582-1.365c-0.39-0.388-0.845-0.582-1.365-0.582s-0.976 0.194-1.365 0.582c-0.388 0.39-0.582 0.845-0.582 1.365s0.194 0.976 0.582 1.365c0.39 0.388 0.845 0.582 1.365 0.582zM13.596 12.522h11.819l-5.915-9.005-5.904 9.005z"></path>
</symbol>
<symbol id="icon-heart" viewBox="0 0 33 32">
<path d="M16.233 26.353c-0.159-0-0.312-0.053-0.438-0.151-3.989-3.099-6.736-5.768-8.659-8.4-2.453-3.365-3.013-6.471-1.664-9.233 0.961-1.973 3.723-3.587 6.951-2.647 1.539 0.445 2.882 1.398 3.809 2.705 0.927-1.306 2.27-2.26 3.809-2.705 3.221-0.925 5.99 0.674 6.951 2.647 1.349 2.762 0.789 5.868-1.664 9.233-1.923 2.633-4.67 5.301-8.659 8.4-0.125 0.097-0.279 0.15-0.438 0.151zM10.588 7.091c-0.768-0.030-1.53 0.15-2.204 0.52s-1.234 0.917-1.62 1.582c-1.112 2.281-0.61 4.821 1.535 7.755 2.279 2.94 4.949 5.556 7.934 7.776 2.985-2.218 5.654-4.832 7.934-7.769 2.152-2.941 2.647-5.481 1.535-7.755-0.717-1.435-2.87-2.575-5.266-1.901-0.768 0.227-1.48 0.612-2.091 1.131s-1.105 1.16-1.453 1.882c-0.054 0.132-0.146 0.244-0.264 0.323s-0.257 0.121-0.399 0.121c-0.142 0-0.281-0.042-0.399-0.121s-0.21-0.192-0.264-0.323c-0.345-0.724-0.839-1.366-1.45-1.885s-1.324-0.904-2.094-1.128c-0.466-0.135-0.949-0.205-1.435-0.208z"></path>
</symbol>
<symbol id="icon-account" viewBox="0 0 32 32">
<path d="M15.059 17.318c6.234 0 11.294 2.364 11.294 5.271v3.765h-22.588v-3.765c0-2.906 5.060-5.271 11.294-5.271zM24.847 22.588c0-2.078-4.382-3.765-9.788-3.765s-9.788 1.687-9.788 3.765v2.259h19.576v-2.259zM15.059 3.765c1.398 0 2.738 0.555 3.727 1.544s1.544 2.329 1.544 3.727c0 1.398-0.555 2.738-1.544 3.727s-2.329 1.544-3.727 1.544c-1.398 0-2.738-0.555-3.727-1.544s-1.544-2.329-1.544-3.727c0-1.398 0.555-2.738 1.544-3.727s2.329-1.544 3.727-1.544zM15.059 5.271c-0.998 0-1.956 0.397-2.662 1.103s-1.103 1.664-1.103 2.662 0.397 1.956 1.103 2.662c0.706 0.706 1.664 1.103 2.662 1.103s1.956-0.397 2.662-1.103c0.706-0.706 1.103-1.664 1.103-2.662s-0.397-1.956-1.103-2.662c-0.706-0.706-1.664-1.103-2.662-1.103z"></path>
</symbol>
<symbol id="icon-search" viewBox="0 0 32 32">
<path d="M30.454 31.733c0.828 0.823 2.106-0.447 1.278-1.253l-6.75-6.73c2.368-2.605 3.676-5.993 3.672-9.504 0-7.857-6.426-14.247-14.327-14.247s-14.327 6.39-14.327 14.247 6.426 14.247 14.327 14.247c3.564 0 6.857-1.307 9.377-3.472l6.749 6.712zM1.798 14.247c0-6.873 5.634-12.457 12.527-12.457 6.911 0 12.527 5.584 12.527 12.457s-5.616 12.457-12.527 12.457c-6.894 0-12.527-5.584-12.527-12.457z"></path>
</symbol>
</defs>
</svg>
