<svg aria-hidden="true" style="position: absolute; width: 0; height: 0; overflow: hidden;" version="1.1" xmlns="http://www.w3.org/2000/svg" xmlns:xlink="http://www.w3.org/1999/xlink">
<defs>
<symbol id="icon-close-eye" viewBox="0 0 32 32">
<path fill="none" stroke="#797b82" style="stroke: var(--color1, #797b82)" stroke-linejoin="round" stroke-linecap="round" stroke-miterlimit="4" stroke-width="1.28" d="M14.554 24.867c0.54 0.063 1.082 0.094 1.626 0.093 5.97 0 10.752-3.716 12.8-8.96-0.496-1.276-1.166-2.477-1.99-3.569M9.166 23.016c-2.611-1.594-4.634-4.063-5.786-7.016 2.048-5.244 6.83-8.96 12.8-8.96 2.473-0.013 4.901 0.66 7.014 1.946M13.466 18.714c-0.357-0.357-0.639-0.78-0.832-1.246s-0.292-0.965-0.292-1.47 0.099-1.004 0.292-1.47c0.193-0.466 0.476-0.889 0.832-1.246s0.78-0.639 1.246-0.832c0.466-0.193 0.965-0.292 1.47-0.292s1.004 0.099 1.47 0.292c0.466 0.193 0.889 0.476 1.246 0.832"></path>
<path fill="none" stroke="#797b82" style="stroke: var(--color1, #797b82)" stroke-linejoin="miter" stroke-linecap="round" stroke-miterlimit="4" stroke-width="1.28" d="M5.94 26.24l20.48-20.48"></path>
</symbol>
<symbol id="icon-google" viewBox="0 0 32 32">
<path fill="#fff" style="fill: var(--color2, #fff)" d="M11.145 1.053c-3.197 1.109-5.955 3.214-7.867 6.006s-2.879 6.124-2.758 9.506c0.121 3.382 1.324 6.636 3.431 9.284s5.008 4.551 8.277 5.428c2.65 0.684 5.426 0.714 8.090 0.087 2.413-0.542 4.644-1.702 6.475-3.365 1.905-1.784 3.288-4.054 4-6.565 0.774-2.731 0.911-5.603 0.403-8.395h-14.88v6.172h8.617c-0.172 0.985-0.541 1.924-1.085 2.763s-1.251 1.559-2.080 2.117c-1.052 0.696-2.239 1.165-3.483 1.375-1.248 0.232-2.527 0.232-3.775 0-1.265-0.261-2.461-0.783-3.512-1.533-1.69-1.196-2.958-2.895-3.625-4.855-0.678-1.997-0.678-4.161 0-6.157 0.475-1.399 1.259-2.674 2.295-3.727 1.185-1.228 2.686-2.106 4.338-2.537s3.39-0.399 5.025 0.092c1.277 0.392 2.445 1.077 3.41 2 0.972-0.967 1.942-1.936 2.91-2.908 0.5-0.522 1.045-1.020 1.538-1.555-1.474-1.371-3.203-2.438-5.090-3.14-3.436-1.248-7.195-1.281-10.653-0.095z"></path>
<path fill="#e33629" style="fill: var(--color3, #e33629)" d="M11.145 1.052c3.457-1.187 7.216-1.154 10.652 0.093 1.887 0.707 3.616 1.779 5.087 3.155-0.5 0.535-1.027 1.035-1.537 1.555-0.97 0.968-1.939 1.933-2.907 2.895-0.965-0.923-2.133-1.608-3.41-2-1.634-0.493-3.372-0.527-5.024-0.098s-3.154 1.306-4.341 2.533c-1.036 1.054-1.82 2.328-2.295 3.727l-5.183-4.012c1.855-3.679 5.067-6.492 8.957-7.848z"></path>
<path fill="#f8bd00" style="fill: var(--color4, #f8bd00)" d="M0.81 12.875c0.278-1.381 0.741-2.717 1.375-3.975l5.182 4.022c-0.678 1.997-0.678 4.161 0 6.157-1.727 1.333-3.454 2.673-5.183 4.020-1.587-3.159-2.071-6.759-1.375-10.225z"></path>
<path fill="#587dbd" style="fill: var(--color5, #587dbd)" d="M16.314 13.038h14.88c0.509 2.792 0.371 5.664-0.403 8.395-0.712 2.511-2.095 4.781-4 6.565-1.672-1.305-3.352-2.6-5.025-3.905 0.829-0.559 1.537-1.28 2.081-2.12s0.913-1.78 1.084-2.765h-8.617c-0.003-2.055 0-4.113 0-6.17z"></path>
<path fill="#319f43" style="fill: var(--color6, #319f43)" d="M2.188 23.099c1.728-1.333 3.456-2.673 5.183-4.020 0.668 1.96 1.939 3.66 3.63 4.855 1.055 0.746 2.254 1.264 3.52 1.52 1.248 0.232 2.527 0.232 3.775 0 1.244-0.21 2.43-0.679 3.482-1.375 1.673 1.305 3.353 2.6 5.025 3.905-1.83 1.664-4.061 2.825-6.475 3.367-2.664 0.626-5.44 0.596-8.090-0.087-2.096-0.56-4.053-1.546-5.75-2.897-1.796-1.426-3.262-3.223-4.3-5.267z"></path>
</symbol>
<symbol id="icon-open-eye" viewBox="0 0 32 32">
<path fill="#797b82" style="fill: var(--color1, #797b82)" d="M16.18 12.16c2.121 0 3.84 1.719 3.84 3.84s-1.719 3.84-3.84 3.84c-2.121 0-3.84-1.719-3.84-3.84s1.719-3.84 3.84-3.84z"></path>
<path fill="#797b82" style="fill: var(--color1, #797b82)" d="M24.509 22.889c-2.623 1.799-5.431 2.711-8.344 2.711-2.621 0-5.177-0.78-7.595-2.309-2.439-1.545-4.83-4.351-6.79-7.291 1.585-2.64 3.754-5.354 6.012-6.911 2.591-1.784 5.408-2.689 8.374-2.689 2.94 0 5.751 0.904 8.358 2.687 2.295 1.573 4.479 4.283 6.056 6.913-1.583 2.606-3.774 5.314-6.071 6.889zM16.18 10.24c-1.139 0-2.253 0.338-3.2 0.971s-1.686 1.533-2.122 2.585c-0.436 1.053-0.55 2.211-0.328 3.328s0.771 2.144 1.576 2.949c0.806 0.805 1.832 1.354 2.949 1.576s2.275 0.108 3.328-0.328 1.952-1.174 2.585-2.121c0.633-0.947 0.971-2.061 0.971-3.2-0.002-1.527-0.609-2.991-1.689-4.071s-2.544-1.687-4.071-1.689z"></path>
</symbol>
<symbol id="icon-shoper" viewBox="0 0 40 32">
<path d="M5.551 32l-5.551-19.478h11.233l8.303-12.522 8.229 12.522h11.258l-5.629 19.478h-27.843zM6.85 30.052h25.321l4.285-15.582h-33.891l4.285 15.582zM19.511 24.209c0.522 0 0.977-0.194 1.365-0.582 0.388-0.39 0.582-0.845 0.582-1.365s-0.194-0.976-0.582-1.365c-0.39-0.388-0.845-0.582-1.365-0.582s-0.976 0.194-1.365 0.582c-0.388 0.39-0.582 0.845-0.582 1.365s0.194 0.976 0.582 1.365c0.39 0.388 0.845 0.582 1.365 0.582zM13.596 12.522h11.819l-5.915-9.005-5.904 9.005z"></path>
</symbol>
<symbol id="icon-heart" viewBox="0 0 36 32">
<path d="M17.818 32c-0.245-0.001-0.483-0.083-0.676-0.233-6.164-4.789-10.41-8.914-13.382-12.983-3.792-5.2-4.656-10-2.572-14.269 1.486-3.049 5.754-5.543 10.743-4.091 2.379 0.687 4.454 2.161 5.887 4.18 1.433-2.019 3.508-3.493 5.887-4.18 4.978-1.43 9.257 1.042 10.743 4.091 2.084 4.268 1.219 9.069-2.572 14.269-2.971 4.069-7.217 8.193-13.382 12.983-0.193 0.15-0.431 0.232-0.676 0.233zM9.093 2.232c-1.187-0.046-2.364 0.232-3.405 0.804s-1.907 1.417-2.504 2.444c-1.718 3.526-0.942 7.45 2.373 11.985 3.523 4.544 7.648 8.587 12.262 12.018 4.613-3.427 8.738-7.467 12.262-12.007 3.326-4.546 4.091-8.47 2.373-11.985-1.109-2.217-4.435-3.98-8.138-2.938-1.187 0.351-2.288 0.946-3.231 1.748s-1.708 1.793-2.246 2.908c-0.084 0.203-0.226 0.377-0.408 0.5s-0.397 0.188-0.617 0.188c-0.22 0-0.435-0.065-0.617-0.188s-0.325-0.296-0.408-0.5c-0.533-1.118-1.297-2.111-2.241-2.914s-2.047-1.396-3.236-1.743c-0.721-0.209-1.467-0.317-2.217-0.321z"></path>
</symbol>
<symbol id="icon-account" viewBox="0 0 32 32">
<path d="M16 19.2c8.832 0 16 3.349 16 7.467v5.333h-32v-5.333c0-4.117 7.168-7.467 16-7.467zM29.867 26.667c0-2.944-6.208-5.333-13.867-5.333s-13.867 2.389-13.867 5.333v3.2h27.733v-3.2zM16 0c1.98 0 3.879 0.787 5.28 2.187s2.187 3.299 2.187 5.28c0 1.98-0.787 3.879-2.187 5.28s-3.299 2.187-5.28 2.187c-1.98 0-3.879-0.787-5.28-2.187s-2.187-3.299-2.187-5.28c0-1.98 0.787-3.879 2.187-5.28s3.299-2.187 5.28-2.187zM16 2.133c-1.414 0-2.771 0.562-3.771 1.562s-1.562 2.357-1.562 3.771c0 1.414 0.562 2.771 1.562 3.771s2.357 1.562 3.771 1.562c1.415 0 2.771-0.562 3.771-1.562s1.562-2.357 1.562-3.771-0.562-2.771-1.562-3.771c-1-1-2.357-1.562-3.771-1.562z"></path>
</symbol>
<symbol id="icon-search" viewBox="0 0 32 32">
<path d="M30.454 31.733c0.828 0.823 2.106-0.448 1.278-1.253l-6.75-6.73c2.368-2.605 3.676-5.992 3.672-9.504 0-7.857-6.426-14.247-14.327-14.247s-14.327 6.39-14.327 14.247c0 7.857 6.426 14.247 14.327 14.247 3.564 0 6.857-1.307 9.377-3.472l6.75 6.712zM1.798 14.247c0-6.873 5.634-12.457 12.527-12.457 6.912 0 12.527 5.584 12.527 12.457s-5.616 12.457-12.527 12.457c-6.894 0-12.527-5.584-12.527-12.457z"></path>
</symbol>
<symbol id="icon-heart-dark-fill" viewBox="0 0 38 32">
<path fill="#3d5517" style="fill: var(--color7, #3d5517)" d="M37 10.856c-2.827-14.782-13.315-9.3-18.206-4.71l-8.605-4.438c-19.42 3.696-2.355 21.286 8.605 29.619 6.159-3.333 16.485-14.312 18.206-20.471z"></path>
</symbol>
<symbol id="icon-fill-star" viewBox="0 0 32 32">
<path fill="#bf7a43" style="fill: var(--color8, #bf7a43)" d="M16 0.699l3.763 11.582h12.178l-9.852 7.158 3.763 11.582-9.852-7.158-9.852 7.158 3.763-11.582-9.852-7.158h12.178l3.763-11.582z"></path>
</symbol>
<symbol id="icon-heart-fill" viewBox="0 0 38 32">
<path fill="#fff" style="fill: var(--color2, #fff)" d="M37 10.856c-2.827-14.782-13.315-9.3-18.206-4.71l-8.605-4.438c-19.42 3.696-2.355 21.286 8.605 29.619 6.159-3.333 16.485-14.312 18.206-20.471z"></path>
</symbol>
<symbol id="icon-heart-light" viewBox="0 0 35 32">
<path fill="#fff" style="fill: var(--color2, #fff)" d="M17.683 29.921l-0.825 0.826c0.108 0.108 0.237 0.195 0.379 0.253s0.294 0.089 0.447 0.089c0.153 0 0.305-0.030 0.447-0.089s0.27-0.145 0.379-0.253l-0.826-0.826zM17.683 6.603l-0.825 0.825c0.108 0.109 0.237 0.195 0.379 0.253s0.294 0.089 0.447 0.089c0.153 0 0.305-0.030 0.447-0.089s0.27-0.145 0.379-0.253l-0.826-0.825zM18.508 29.096l-13.909-13.907-1.649 1.649 13.907 13.909 1.651-1.651zM30.767 15.189l-13.909 13.907 1.651 1.651 13.907-13.909-1.648-1.649zM14.609 5.178l2.248 2.25 1.651-1.651-2.25-2.248-1.649 1.649zM18.508 7.428l2.248-2.25-1.648-1.649-2.25 2.248 1.651 1.651zM25.76 0.773c-2.495 0-4.887 0.991-6.653 2.756l1.648 1.649c1.328-1.327 3.127-2.072 5.004-2.073v-2.332zM32.84 10.185c0 1.877-0.746 3.677-2.075 5.004l1.651 1.649c1.764-1.764 2.756-4.157 2.756-6.653h-2.332zM35.171 10.185c0-2.496-0.992-4.89-2.756-6.655s-4.159-2.756-6.655-2.756v2.332c1.878 0 3.678 0.746 5.006 2.074s2.073 3.128 2.073 5.006h2.332zM9.605 3.105c1.877 0 3.677 0.746 5.004 2.075l1.649-1.651c-1.764-1.764-4.157-2.756-6.653-2.756v2.332zM2.526 10.185c0-1.878 0.746-3.678 2.074-5.006s3.128-2.074 5.006-2.074v-2.332c-2.496 0-4.89 0.992-6.655 2.756s-2.756 4.159-2.756 6.655h2.332zM4.599 15.189c-0.658-0.657-1.177-1.437-1.533-2.296s-0.54-1.779-0.54-2.708h-2.332c0 2.495 0.991 4.888 2.756 6.653l1.649-1.649z"></path>
</symbol>
<symbol id="icon-star" viewBox="0 0 32 32">
<path fill="#e1e1e1" style="fill: var(--color9, #e1e1e1)" d="M16 0.7l3.763 11.582h12.178l-9.852 7.158 3.763 11.582-9.852-7.158-9.852 7.158 3.763-11.582-9.852-7.158h12.178l3.763-11.582z"></path>
</symbol>
<symbol id="icon-close-menu" viewBox="0 0 32 32">
<path stroke-linejoin="round" stroke-linecap="round" stroke-miterlimit="4" stroke-width="2.6667" d="M2.667 2.237l26.667 26.667M2.667 28.904l26.667-26.667"></path>
</symbol>
<symbol id="icon-arrow-top" viewBox="0 0 25 32">
<path fill="none" stroke="#fff" style="stroke: var(--color2, #fff)" stroke-linejoin="round" stroke-linecap="round" stroke-miterlimit="4" stroke-width="3.3684" d="M12.632 3.743v25.85"></path>
<path fill="none" stroke="#fff" style="stroke: var(--color2, #fff)" stroke-linejoin="round" stroke-linecap="round" stroke-miterlimit="4" stroke-width="3.3684" d="M22.737 13.437l-9.415-10.99c-0.086-0.1-0.192-0.181-0.311-0.236s-0.248-0.084-0.378-0.084c-0.13 0-0.259 0.029-0.378 0.084s-0.225 0.136-0.311 0.236l-9.417 10.99"></path>
</symbol>
<symbol id="icon-instagram" viewBox="0 0 32 32">
<path fill="#fff" style="fill: var(--color2, #fff)" d="M23.734 9.864c0.99 0 1.792-0.802 1.792-1.792s-0.802-1.792-1.792-1.792c-0.99 0-1.792 0.802-1.792 1.792s0.802 1.792 1.792 1.792z"></path>
<path fill="#fff" style="fill: var(--color2, #fff)" d="M8.542 15.739c0 4.118 3.349 7.467 7.467 7.467s7.467-3.349 7.467-7.467c0-4.118-3.349-7.467-7.467-7.467s-7.467 3.349-7.467 7.467zM12.282 15.739c0-2.059 1.674-3.733 3.733-3.733s3.733 1.674 3.733 3.733c0 2.059-1.674 3.733-3.733 3.733s-3.733-1.674-3.733-3.733z"></path>
<path fill="#fff" style="fill: var(--color2, #fff)" d="M8.533 30.674h14.933c3.838 0 7.467-3.629 7.467-7.467v-14.933c0-3.838-3.629-7.467-7.467-7.467h-14.933c-3.838 0-7.467 3.629-7.467 7.467v14.933c0 3.838 3.629 7.467 7.467 7.467zM4.807 8.274c0-1.745 1.988-3.733 3.733-3.733h14.933c1.745 0 3.733 1.988 3.733 3.733v14.933c0 1.745-1.988 3.733-3.733 3.733h-14.933c-1.779 0-3.733-1.954-3.733-3.733v-14.933z"></path>
</symbol>
<symbol id="icon-viber" viewBox="0 0 30 32">
<path fill="#fff" style="fill: var(--color2, #fff)" d="M24.127 7.625c-1.161-1.173-2.544-2.103-4.069-2.736s-3.16-0.956-4.81-0.95c-6.916 0-12.553 5.637-12.553 12.553 0 2.217 0.583 4.37 1.672 6.27l-1.773 6.511 6.65-1.748c1.837 1.001 3.901 1.533 6.004 1.533 6.916 0 12.553-5.637 12.553-12.553 0-3.357-1.305-6.511-3.673-8.879zM15.248 26.929c-1.875 0-3.711-0.507-5.32-1.457l-0.38-0.228-3.952 1.039 1.051-3.851-0.253-0.393c-1.042-1.663-1.595-3.586-1.596-5.548 0-5.751 4.687-10.437 10.437-10.437 2.787 0 5.409 1.089 7.372 3.065 0.972 0.968 1.743 2.119 2.267 3.386s0.791 2.627 0.786 3.998c0.025 5.751-4.661 10.425-10.412 10.425zM20.973 19.126c-0.317-0.152-1.862-0.912-2.141-1.026-0.291-0.101-0.494-0.152-0.709 0.152-0.215 0.317-0.811 1.026-0.988 1.229-0.177 0.215-0.367 0.241-0.684 0.076-0.317-0.152-1.33-0.494-2.521-1.558-0.937-0.836-1.558-1.862-1.748-2.179-0.177-0.317-0.025-0.481 0.139-0.646 0.139-0.139 0.317-0.367 0.469-0.545s0.215-0.317 0.317-0.519c0.101-0.215 0.051-0.393-0.025-0.545s-0.709-1.697-0.963-2.331c-0.253-0.608-0.519-0.532-0.709-0.545h-0.608c-0.215 0-0.545 0.076-0.836 0.393-0.279 0.317-1.089 1.077-1.089 2.622s1.127 3.040 1.279 3.243c0.152 0.215 2.217 3.382 5.358 4.737 0.747 0.329 1.33 0.519 1.786 0.659 0.747 0.241 1.431 0.203 1.976 0.127 0.608-0.089 1.862-0.76 2.115-1.495 0.266-0.735 0.266-1.355 0.177-1.495s-0.279-0.203-0.595-0.355z"></path>
</symbol>
<symbol id="icon-facebook" viewBox="0 0 14 32">
<path fill="#fff" style="fill: var(--color2, #fff)" d="M3.101 31.647v-15.001h-3.101v-5.17h3.101v-3.104c0-4.217 1.751-6.725 6.727-6.725h4.142v5.17h-2.589c-1.937 0-2.065 0.722-2.065 2.071l-0.007 2.587h4.691l-0.549 5.17h-4.142v15.002h-6.208z"></path>
</symbol>
<symbol id="icon-call" viewBox="0 0 32 32">
<path fill="#eaeaea" style="fill: var(--color10, #eaeaea)" d="M22.469 19.446v2.514c0 0.18-0.068 0.353-0.191 0.485s-0.291 0.212-0.47 0.225c-0.311 0.021-0.565 0.033-0.761 0.033-6.284 0-11.378-5.094-11.378-11.378 0-0.196 0.011-0.45 0.033-0.761 0.013-0.18 0.093-0.348 0.225-0.47s0.305-0.191 0.485-0.191h2.514c0.088-0 0.173 0.033 0.239 0.092s0.107 0.14 0.115 0.228c0.016 0.164 0.031 0.294 0.046 0.393 0.141 0.986 0.431 1.945 0.859 2.845 0.068 0.142 0.023 0.312-0.105 0.403l-1.535 1.097c0.938 2.186 2.681 3.929 4.867 4.867l1.095-1.532c0.045-0.063 0.11-0.107 0.185-0.127s0.153-0.012 0.223 0.021c0.9 0.427 1.858 0.716 2.844 0.857 0.099 0.014 0.229 0.029 0.391 0.045 0.088 0.009 0.169 0.050 0.228 0.116s0.091 0.15 0.091 0.238z"></path>
</symbol>
<symbol id="icon-mail" viewBox="0 0 32 32">
<path fill="#eaeaea" style="fill: var(--color10, #eaeaea)" d="M22.736 10.969h-13.333v10.667h13.333v-10.667zM21.403 13.636l-5.333 3.333-5.333-3.333v-1.333l5.333 3.333 5.333-3.333v1.333z"></path>
</symbol>
<symbol id="icon-arrow-right" viewBox="0 0 31 32">
<path stroke-linejoin="round" stroke-linecap="round" stroke-miterlimit="4" stroke-width="0.5818" d="M18.669 20.715l4.19-4.209 0.623-0.59M23.482 15.917l-15.546-0M23.482 15.917l-4.813-4.795"></path>
</symbol>
<symbol id="icon-arrow-left" viewBox="0 0 31 32">
<path stroke-linejoin="round" stroke-linecap="round" stroke-miterlimit="4" stroke-width="0.5818" d="M12.749 20.715l-4.19-4.209-0.623-0.59M7.936 15.917l15.546-0M7.936 15.917l4.813-4.795"></path>
</symbol>
<symbol id="icon-shoper1" viewBox="0 0 40 32">
<path d="M5.551 32l-5.551-19.478h11.233l8.303-12.522 8.229 12.522h11.258l-5.629 19.478h-27.843zM6.85 30.052h25.321l4.285-15.582h-33.891l4.285 15.582zM19.511 24.209c0.522 0 0.977-0.194 1.365-0.582 0.388-0.39 0.582-0.845 0.582-1.365s-0.194-0.976-0.582-1.365c-0.39-0.388-0.845-0.582-1.365-0.582s-0.976 0.194-1.365 0.582c-0.388 0.39-0.582 0.845-0.582 1.365s0.194 0.976 0.582 1.365c0.39 0.388 0.845 0.582 1.365 0.582zM13.596 12.522h11.819l-5.915-9.005-5.904 9.005z"></path>
</symbol>
<symbol id="icon-heart1" viewBox="0 0 33 32">
<path d="M16.233 26.353c-0.159-0-0.312-0.053-0.438-0.151-3.989-3.099-6.736-5.768-8.659-8.4-2.453-3.365-3.013-6.471-1.664-9.233 0.961-1.973 3.723-3.587 6.951-2.647 1.539 0.445 2.882 1.398 3.809 2.705 0.927-1.306 2.27-2.26 3.809-2.705 3.221-0.925 5.99 0.674 6.951 2.647 1.349 2.762 0.789 5.868-1.664 9.233-1.923 2.633-4.67 5.301-8.659 8.4-0.125 0.097-0.279 0.15-0.438 0.151zM10.588 7.091c-0.768-0.030-1.53 0.15-2.204 0.52s-1.234 0.917-1.62 1.582c-1.112 2.281-0.61 4.821 1.535 7.755 2.279 2.94 4.949 5.556 7.934 7.776 2.985-2.218 5.654-4.832 7.934-7.769 2.152-2.941 2.647-5.481 1.535-7.755-0.717-1.435-2.87-2.575-5.266-1.901-0.768 0.227-1.48 0.612-2.091 1.131s-1.105 1.16-1.453 1.882c-0.054 0.132-0.146 0.244-0.264 0.323s-0.257 0.121-0.399 0.121c-0.142 0-0.281-0.042-0.399-0.121s-0.21-0.192-0.264-0.323c-0.345-0.724-0.839-1.366-1.45-1.885s-1.324-0.904-2.094-1.128c-0.466-0.135-0.949-0.205-1.435-0.208z"></path>
</symbol>
<symbol id="icon-account1" viewBox="0 0 32 32">
<path d="M15.059 17.318c6.234 0 11.294 2.364 11.294 5.271v3.765h-22.588v-3.765c0-2.906 5.060-5.271 11.294-5.271zM24.847 22.588c0-2.078-4.382-3.765-9.788-3.765s-9.788 1.687-9.788 3.765v2.259h19.576v-2.259zM15.059 3.765c1.398 0 2.738 0.555 3.727 1.544s1.544 2.329 1.544 3.727c0 1.398-0.555 2.738-1.544 3.727s-2.329 1.544-3.727 1.544c-1.398 0-2.738-0.555-3.727-1.544s-1.544-2.329-1.544-3.727c0-1.398 0.555-2.738 1.544-3.727s2.329-1.544 3.727-1.544zM15.059 5.271c-0.998 0-1.956 0.397-2.662 1.103s-1.103 1.664-1.103 2.662 0.397 1.956 1.103 2.662c0.706 0.706 1.664 1.103 2.662 1.103s1.956-0.397 2.662-1.103c0.706-0.706 1.103-1.664 1.103-2.662s-0.397-1.956-1.103-2.662c-0.706-0.706-1.664-1.103-2.662-1.103z"></path>
</symbol>
<symbol id="icon-search1" viewBox="0 0 32 32">
<path d="M30.454 31.733c0.828 0.823 2.106-0.447 1.278-1.253l-6.75-6.73c2.368-2.605 3.676-5.993 3.672-9.504 0-7.857-6.426-14.247-14.327-14.247s-14.327 6.39-14.327 14.247 6.426 14.247 14.327 14.247c3.564 0 6.857-1.307 9.377-3.472l6.749 6.712zM1.798 14.247c0-6.873 5.634-12.457 12.527-12.457 6.911 0 12.527 5.584 12.527 12.457s-5.616 12.457-12.527 12.457c-6.894 0-12.527-5.584-12.527-12.457z"></path>
</symbol>
</defs>
</svg>
