<svg width="24" height="25" viewBox="0 0 24 25" fill="none" xmlns="http://www.w3.org/2000/svg">
<path d="M18 12.3535C18 12.4227 17.9725 12.4891 17.9236 12.538C17.8747 12.5869 17.8083 12.6144 17.7391 12.6144H12.2609V18.0926C12.2609 18.1618 12.2334 18.2282 12.1845 18.2771C12.1355 18.326 12.0692 18.3535 12 18.3535C11.9308 18.3535 11.8645 18.326 11.8155 18.2771C11.7666 18.2282 11.7391 18.1618 11.7391 18.0926V12.6144H6.26087C6.19168 12.6144 6.12533 12.5869 6.07641 12.538C6.02748 12.4891 6 12.4227 6 12.3535C6 12.2843 6.02748 12.218 6.07641 12.1691C6.12533 12.1201 6.19168 12.0926 6.26087 12.0926H11.7391V6.61439C11.7391 6.5452 11.7666 6.47885 11.8155 6.42992C11.8645 6.381 11.9308 6.35352 12 6.35352C12.0692 6.35352 12.1355 6.381 12.1845 6.42992C12.2334 6.47885 12.2609 6.5452 12.2609 6.61439V12.0926H17.7391C17.8083 12.0926 17.8747 12.1201 17.9236 12.1691C17.9725 12.218 18 12.2843 18 12.3535Z" fill="#5C5C61"/>
</svg>
