<svg width="35" height="41" viewBox="0 0 35 41" fill="none" xmlns="http://www.w3.org/2000/svg">
<g clip-path="url(#clip0_8_6207)">
<path d="M8.35 7.28228L21.25 20.1823L8.35 33.0823" stroke="#D7D7D7" stroke-linecap="round" stroke-linejoin="round"/>
<path fill-rule="evenodd" clip-rule="evenodd" d="M3.58203 15.8963C3.58207 15.7268 3.63236 15.5611 3.72655 15.4202C3.82074 15.2792 3.9546 15.1694 4.1112 15.1045C4.26781 15.0397 4.44012 15.0227 4.60637 15.0557C4.77263 15.0888 4.92534 15.1704 5.04522 15.2903L9.33106 19.5761C9.49176 19.7368 9.58203 19.9548 9.58203 20.1821C9.58203 20.4094 9.49176 20.6274 9.33106 20.7881L5.04522 25.074C4.92534 25.1938 4.77263 25.2754 4.60637 25.3085C4.44012 25.3415 4.26781 25.3246 4.1112 25.2597C3.9546 25.1949 3.82074 25.085 3.72655 24.9441C3.63236 24.8032 3.58207 24.6375 3.58203 24.468L3.58203 15.8963Z" fill="#D7D7D7"/>
<path d="M24.1589 10.8918L33.4492 20.1821L24.1589 29.4724" stroke="#D7D7D7" stroke-linecap="round" stroke-linejoin="round"/>
</g>
<defs>
<clipPath id="clip0_8_6207">
<rect width="40" height="34" fill="white" transform="matrix(0 -1 -1 0 34.25 40.1821)"/>
</clipPath>
</defs>
</svg>
