<svg width="120" height="149" viewBox="0 0 120 149" fill="none" xmlns="http://www.w3.org/2000/svg">
<path opacity="0.8" d="M120 45.5615C120 17.4415 104.455 0.174805 104.455 0.174805H15.5455C15.5455 0.174805 0 17.6881 0 45.5615C0 72.2015 25.3636 97.1148 57 98.5948C56.7273 114.135 55.0909 130.168 51 135.841C45 143.735 24.2727 139.788 24.2727 148.175H95.7273C95.7273 139.788 75 143.735 69 135.841C64.9091 130.168 63.2727 114.135 63 98.5948C94.6364 97.1148 120 72.4481 120 45.5615ZM60 92.1815C33.2727 92.1815 11.1818 72.9415 8.45455 50.9881C8.18182 49.5081 8.18182 47.7815 8.18182 46.3015C8.18182 21.8815 21.5455 7.08147 21.5455 7.08147H98.4545C98.4545 7.08147 111.545 21.8815 111.818 45.8081V46.3015C111.818 69.9815 88.6364 92.1815 60 92.1815Z" fill="url(#paint0_linear_793_4129)"/>
<defs>
<linearGradient id="paint0_linear_793_4129" x1="60" y1="0.174805" x2="60" y2="148.175" gradientUnits="userSpaceOnUse">
<stop stop-color="#9D9D9D"/>
<stop offset="1" stop-color="#E5E5E5"/>
</linearGradient>
</defs>
</svg>
