<svg width="25" height="25" viewBox="0 0 25 25" fill="none" xmlns="http://www.w3.org/2000/svg">
<path d="M11.3706 19.427C11.7922 19.4759 12.2162 19.5003 12.6406 19.5C17.3046 19.5 21.0406 16.597 22.6406 12.5C22.2533 11.5034 21.73 10.5652 21.0856 9.712M7.16062 17.981C5.12063 16.736 3.54062 14.807 2.64062 12.5C4.24063 8.403 7.97662 5.5 12.6406 5.5C14.5728 5.4898 16.4698 6.016 18.1206 7.02M10.5206 14.62C10.242 14.3414 10.021 14.0107 9.87025 13.6466C9.71947 13.2826 9.64187 12.8925 9.64187 12.4985C9.64187 12.1045 9.71947 11.7144 9.87025 11.3504C10.021 10.9863 10.242 10.6556 10.5206 10.377C10.7992 10.0984 11.13 9.8774 11.494 9.72662C11.858 9.57585 12.2481 9.49824 12.6421 9.49824C13.0361 9.49824 13.4263 9.57585 13.7903 9.72662C14.1543 9.8774 14.485 10.0984 14.7636 10.377" stroke="#797B82" stroke-linecap="round" stroke-linejoin="round"/>
<path d="M4.64062 20.5L20.6406 4.5" stroke="#797B82" stroke-linecap="round"/>
</svg>
