<svg width="24" height="24" viewBox="0 0 24 24" fill="none" xmlns="http://www.w3.org/2000/svg">
<g clip-path="url(#clip0_793_7539)">
<path d="M8.35909 0.789921C5.96112 1.6218 3.89311 3.20073 2.45882 5.2948C1.02454 7.38887 0.299573 9.88769 0.390418 12.4242C0.481264 14.9608 1.38313 17.4013 2.96355 19.3874C4.54396 21.3735 6.71962 22.8005 9.17096 23.4587C11.1583 23.9715 13.2405 23.994 15.2385 23.5243C17.0484 23.1177 18.7218 22.2481 20.0947 21.0005C21.5236 19.6624 22.5608 17.9602 23.0947 16.0768C23.6749 14.0286 23.7781 11.8748 23.3966 9.78055H12.2366V14.4099H18.6997C18.5705 15.1483 18.2937 15.853 17.8859 16.4819C17.478 17.1107 16.9474 17.6509 16.326 18.0699C15.5368 18.5922 14.6471 18.9435 13.7141 19.1012C12.7784 19.2752 11.8186 19.2752 10.8828 19.1012C9.93438 18.9053 9.03716 18.5138 8.24846 17.9518C6.98124 17.0548 6.02973 15.7804 5.52971 14.3105C5.02138 12.8131 5.02138 11.1898 5.52971 9.69242C5.88564 8.64283 6.47403 7.68717 7.25096 6.8968C8.14007 5.9757 9.26571 5.31729 10.5044 4.99381C11.743 4.67034 13.0469 4.69429 14.2728 5.06305C15.2306 5.3569 16.1064 5.87057 16.8303 6.56305C17.5591 5.83805 18.2866 5.11117 19.0128 4.38242C19.3878 3.99055 19.7966 3.61742 20.166 3.21617C19.0607 2.18777 17.7634 1.38749 16.3485 0.861171C13.7717 -0.0744733 10.9522 -0.0996178 8.35909 0.789921Z" fill="white"/>
<path d="M8.35875 0.788879C10.9516 -0.101264 13.7711 -0.0767817 16.3481 0.858254C17.7634 1.38815 19.06 2.19228 20.1637 3.2245C19.7887 3.62575 19.3931 4.00075 19.0106 4.39075C18.2831 5.117 17.5562 5.84075 16.83 6.562C16.106 5.86953 15.2302 5.35586 14.2725 5.062C13.047 4.69196 11.7432 4.66662 10.5042 4.98877C9.26516 5.31092 8.13883 5.96812 7.24875 6.88825C6.47181 7.67863 5.88342 8.63428 5.5275 9.68388L1.64062 6.6745C3.03189 3.91556 5.44078 1.80517 8.35875 0.788879Z" fill="#E33629"/>
<path d="M0.607495 9.65605C0.816256 8.62063 1.16311 7.61792 1.63874 6.6748L5.52562 9.69168C5.01729 11.1891 5.01729 12.8124 5.52562 14.3098C4.23062 15.3098 2.93499 16.3148 1.63874 17.3248C0.448402 14.9554 0.0853684 12.2557 0.607495 9.65605Z" fill="#F8BD00"/>
<path d="M12.2352 9.77832H23.3952C23.7768 11.8726 23.6735 14.0264 23.0933 16.0746C22.5594 17.958 21.5222 19.6602 20.0933 20.9983C18.839 20.0196 17.579 19.0483 16.3246 18.0696C16.9465 17.6501 17.4773 17.1094 17.8852 16.4798C18.2931 15.8503 18.5696 15.1448 18.6983 14.4058H12.2352C12.2333 12.8646 12.2352 11.3214 12.2352 9.77832Z" fill="#587DBD"/>
<path d="M1.64062 17.3246C2.93687 16.3246 4.2325 15.3196 5.5275 14.3096C6.02851 15.7799 6.98138 17.0544 8.25 17.9508C9.04116 18.5103 9.9403 18.8985 10.89 19.0908C11.8257 19.2649 12.7855 19.2649 13.7213 19.0908C14.6543 18.9331 15.544 18.5818 16.3331 18.0596C17.5875 19.0383 18.8475 20.0096 20.1019 20.9883C18.7292 22.2366 17.0558 23.1068 15.2456 23.5139C13.2476 23.9836 11.1655 23.9611 9.17813 23.4483C7.60632 23.0286 6.13814 22.2888 4.86563 21.2752C3.51886 20.2057 2.41882 18.8582 1.64062 17.3246Z" fill="#319F43"/>
</g>
<defs>
<clipPath id="clip0_793_7539">
<rect width="24" height="24" fill="white"/>
</clipPath>
</defs>
</svg>
