<svg width="25" height="25" viewBox="0 0 25 25" fill="none" xmlns="http://www.w3.org/2000/svg">
<path d="M12.6406 9.5C14.2975 9.5 15.6406 10.8431 15.6406 12.5C15.6406 14.1569 14.2975 15.5 12.6406 15.5C10.9838 15.5 9.64062 14.1569 9.64062 12.5C9.64062 10.8431 10.9838 9.5 12.6406 9.5Z" fill="#797B82"/>
<path d="M19.1478 17.8822C17.0984 19.2875 14.9052 20 12.6294 20C10.5814 20 8.585 19.3906 6.69547 18.1963C4.79 16.9892 2.92203 14.7969 1.39062 12.5C2.62906 10.4375 4.32312 8.31688 6.0875 7.10094C8.11156 5.70688 10.3123 5 12.6294 5C14.9262 5 17.1223 5.70641 19.1591 7.09953C20.952 8.32812 22.6583 10.4459 23.8906 12.5C22.6541 14.5358 20.9422 16.6513 19.1478 17.8822ZM12.6406 8C11.7506 8 10.8806 8.26392 10.1406 8.75839C9.40054 9.25285 8.82376 9.95566 8.48317 10.7779C8.14257 11.6002 8.05346 12.505 8.22709 13.3779C8.40072 14.2508 8.82931 15.0526 9.45864 15.682C10.088 16.3113 10.8898 16.7399 11.7627 16.9135C12.6356 17.0872 13.5404 16.9981 14.3627 16.6575C15.185 16.3169 15.8878 15.7401 16.3822 15.0001C16.8767 14.26 17.1406 13.39 17.1406 12.5C17.1393 11.3069 16.6647 10.1631 15.8211 9.31953C14.9775 8.47591 13.8337 8.00136 12.6406 8Z" fill="#797B82"/>
</svg>
