<svg width="34" height="41" viewBox="0 0 34 41" fill="none" xmlns="http://www.w3.org/2000/svg">
<g clip-path="url(#clip0_8_6213)">
<path d="M25.9 7.37847L13 20.2785L25.9 33.1785" stroke="#D7D7D7" stroke-linecap="round" stroke-linejoin="round"/>
<path fill-rule="evenodd" clip-rule="evenodd" d="M30.668 15.9925C30.6679 15.823 30.6176 15.6573 30.5235 15.5163C30.4293 15.3754 30.2954 15.2656 30.1388 15.2007C29.9822 15.1359 29.8099 15.1189 29.6436 15.1519C29.4774 15.185 29.3247 15.2666 29.2048 15.3864L24.9189 19.6723C24.7582 19.833 24.668 20.051 24.668 20.2783C24.668 20.5056 24.7582 20.7236 24.9189 20.8843L29.2048 25.1702C29.3247 25.29 29.4774 25.3716 29.6436 25.4047C29.8099 25.4377 29.9822 25.4208 30.1388 25.3559C30.2954 25.291 30.4293 25.1812 30.5235 25.0403C30.6176 24.8994 30.6679 24.7337 30.668 24.5642V15.9925Z" fill="#D7D7D7"/>
<path d="M10.0911 10.988L0.800781 20.2783L10.0911 29.5686" stroke="#D7D7D7" stroke-linecap="round" stroke-linejoin="round"/>
</g>
<defs>
<clipPath id="clip0_8_6213">
<rect width="40" height="34" fill="white" transform="matrix(0 -1 1 0 0 40.2783)"/>
</clipPath>
</defs>
</svg>
