<svg width="20" height="21" viewBox="0 0 20 21" fill="none" xmlns="http://www.w3.org/2000/svg">
<path d="M10 0.5C4.48 0.5 0 4.98 0 10.5C0 16.02 4.48 20.5 10 20.5C15.52 20.5 20 16.02 20 10.5C20 4.98 15.52 0.5 10 0.5ZM10 18.5C5.58 18.5 2 14.92 2 10.5C2 6.08 5.58 2.5 10 2.5C14.42 2.5 18 6.08 18 10.5C18 14.92 14.42 18.5 10 18.5Z" fill="#BF7A43"/>
<path d="M10 15.5C12.7614 15.5 15 13.2614 15 10.5C15 7.73858 12.7614 5.5 10 5.5C7.23858 5.5 5 7.73858 5 10.5C5 13.2614 7.23858 15.5 10 15.5Z" fill="#BF7A43"/>
</svg>
