<svg width="19" height="19" viewBox="0 0 19 19" fill="none" xmlns="http://www.w3.org/2000/svg">
<path d="M17.488 0.505859H1.46969C1.20629 0.505859 0.953689 0.610447 0.767442 0.796615C0.581195 0.982783 0.476563 1.23528 0.476562 1.49856V17.5116C0.476563 17.7749 0.581195 18.0274 0.767442 18.2136C0.953689 18.3997 1.20629 18.5043 1.46969 18.5043H10.09V11.5356H7.74623V8.8186H10.09V6.81487C10.09 4.49042 11.5109 3.22434 13.5858 3.22434C14.286 3.22184 14.9858 3.25753 15.6821 3.33125V5.76108H14.2474C13.1183 5.76108 12.8998 6.29714 12.8998 7.08366V8.8186H15.5904L15.2405 11.5356H12.8998V18.5059H17.4834C17.7467 18.5055 17.9991 18.4007 18.1852 18.2147C18.3714 18.0286 18.4762 17.7763 18.4766 17.5132V1.50009C18.477 1.23734 18.3731 0.985138 18.1878 0.798771C18.0025 0.612404 17.7509 0.507072 17.488 0.505859Z" fill="#436DBF"/>
</svg>
