<svg width="25" height="25" viewBox="0 0 25 25" fill="none" xmlns="http://www.w3.org/2000/svg">
<path d="M20.7598 12.9531C20.7598 13.0526 20.7203 13.148 20.6499 13.2183C20.5796 13.2886 20.4842 13.3281 20.3848 13.3281H12.5098V21.2031C12.5098 21.3026 12.4703 21.398 12.3999 21.4683C12.3296 21.5386 12.2342 21.5781 12.1348 21.5781C12.0353 21.5781 11.9399 21.5386 11.8696 21.4683C11.7993 21.398 11.7598 21.3026 11.7598 21.2031V13.3281H3.88477C3.78531 13.3281 3.68993 13.2886 3.6196 13.2183C3.54927 13.148 3.50977 13.0526 3.50977 12.9531C3.50977 12.8537 3.54927 12.7583 3.6196 12.688C3.68993 12.6176 3.78531 12.5781 3.88477 12.5781H11.7598V4.70312C11.7598 4.60367 11.7993 4.50829 11.8696 4.43796C11.9399 4.36763 12.0353 4.32812 12.1348 4.32812C12.2342 4.32812 12.3296 4.36763 12.3999 4.43796C12.4703 4.50829 12.5098 4.60367 12.5098 4.70312V12.5781H20.3848C20.4842 12.5781 20.5796 12.6176 20.6499 12.688C20.7203 12.7583 20.7598 12.8537 20.7598 12.9531Z" fill="#313335"/>
</svg>
