<svg aria-hidden="true" style="position: absolute; width: 0; height: 0; overflow: hidden;" version="1.1" xmlns="http://www.w3.org/2000/svg" xmlns:xlink="http://www.w3.org/1999/xlink">
<defs>
<symbol id="icon-shoper" viewBox="0 0 40 32">
<path d="M5.551 32l-5.551-19.478h11.233l8.303-12.522 8.229 12.522h11.258l-5.629 19.478h-27.843zM6.85 30.052h25.321l4.285-15.582h-33.891l4.285 15.582zM19.511 24.209c0.522 0 0.977-0.194 1.365-0.582 0.388-0.39 0.582-0.845 0.582-1.365s-0.194-0.976-0.582-1.365c-0.39-0.388-0.845-0.582-1.365-0.582s-0.976 0.194-1.365 0.582c-0.388 0.39-0.582 0.845-0.582 1.365s0.194 0.976 0.582 1.365c0.39 0.388 0.845 0.582 1.365 0.582zM13.596 12.522h11.819l-5.915-9.005-5.904 9.005z"></path>
</symbol>
<symbol id="icon-heart" viewBox="0 0 36 32">
<path d="M17.818 32c-0.245-0.001-0.483-0.083-0.676-0.233-6.164-4.789-10.41-8.914-13.382-12.983-3.792-5.2-4.656-10-2.572-14.269 1.486-3.049 5.754-5.543 10.743-4.091 2.379 0.687 4.454 2.161 5.887 4.18 1.433-2.019 3.508-3.493 5.887-4.18 4.978-1.43 9.257 1.042 10.743 4.091 2.084 4.268 1.219 9.069-2.572 14.269-2.971 4.069-7.217 8.193-13.382 12.983-0.193 0.15-0.431 0.232-0.676 0.233zM9.093 2.232c-1.187-0.046-2.364 0.232-3.405 0.804s-1.907 1.417-2.504 2.444c-1.718 3.526-0.942 7.45 2.373 11.985 3.523 4.544 7.648 8.587 12.262 12.018 4.613-3.427 8.738-7.467 12.262-12.007 3.326-4.546 4.091-8.47 2.373-11.985-1.109-2.217-4.435-3.98-8.138-2.938-1.187 0.351-2.288 0.946-3.231 1.748s-1.708 1.793-2.246 2.908c-0.084 0.203-0.226 0.377-0.408 0.5s-0.397 0.188-0.617 0.188c-0.22 0-0.435-0.065-0.617-0.188s-0.325-0.296-0.408-0.5c-0.533-1.118-1.297-2.111-2.241-2.914s-2.047-1.396-3.236-1.743c-0.721-0.209-1.467-0.317-2.217-0.321z"></path>
</symbol>
<symbol id="icon-account" viewBox="0 0 32 32">
<path d="M16 19.2c8.832 0 16 3.349 16 7.467v5.333h-32v-5.333c0-4.117 7.168-7.467 16-7.467zM29.867 26.667c0-2.944-6.208-5.333-13.867-5.333s-13.867 2.389-13.867 5.333v3.2h27.733v-3.2zM16 0c1.98 0 3.879 0.787 5.28 2.187s2.187 3.299 2.187 5.28c0 1.98-0.787 3.879-2.187 5.28s-3.299 2.187-5.28 2.187c-1.98 0-3.879-0.787-5.28-2.187s-2.187-3.299-2.187-5.28c0-1.98 0.787-3.879 2.187-5.28s3.299-2.187 5.28-2.187zM16 2.133c-1.414 0-2.771 0.562-3.771 1.562s-1.562 2.357-1.562 3.771c0 1.414 0.562 2.771 1.562 3.771s2.357 1.562 3.771 1.562c1.415 0 2.771-0.562 3.771-1.562s1.562-2.357 1.562-3.771-0.562-2.771-1.562-3.771c-1-1-2.357-1.562-3.771-1.562z"></path>
</symbol>
<symbol id="icon-search" viewBox="0 0 32 32">
<path d="M30.454 31.733c0.828 0.823 2.106-0.448 1.278-1.253l-6.75-6.73c2.368-2.605 3.676-5.992 3.672-9.504 0-7.857-6.426-14.247-14.327-14.247s-14.327 6.39-14.327 14.247c0 7.857 6.426 14.247 14.327 14.247 3.564 0 6.857-1.307 9.377-3.472l6.75 6.712zM1.798 14.247c0-6.873 5.634-12.457 12.527-12.457 6.912 0 12.527 5.584 12.527 12.457s-5.616 12.457-12.527 12.457c-6.894 0-12.527-5.584-12.527-12.457z"></path>
</symbol>
<symbol id="icon-heart-dark-fill" viewBox="0 0 38 32">
<path fill="#3d5517" style="fill: var(--color1, #3d5517)" d="M37 10.856c-2.827-14.782-13.315-9.3-18.206-4.71l-8.605-4.438c-19.42 3.696-2.355 21.286 8.605 29.619 6.159-3.333 16.485-14.312 18.206-20.471z"></path>
</symbol>
<symbol id="icon-fill-star" viewBox="0 0 32 32">
<path fill="#bf7a43" style="fill: var(--color2, #bf7a43)" d="M16 0.699l3.763 11.582h12.178l-9.852 7.158 3.763 11.582-9.852-7.158-9.852 7.158 3.763-11.582-9.852-7.158h12.178l3.763-11.582z"></path>
</symbol>
<symbol id="icon-heart-fill" viewBox="0 0 38 32">
<path fill="#fff" style="fill: var(--color3, #fff)" d="M37 10.856c-2.827-14.782-13.315-9.3-18.206-4.71l-8.605-4.438c-19.42 3.696-2.355 21.286 8.605 29.619 6.159-3.333 16.485-14.312 18.206-20.471z"></path>
</symbol>
<symbol id="icon-heart-light" viewBox="0 0 35 32">
<path fill="#fff" style="fill: var(--color3, #fff)" d="M17.683 29.921l-0.825 0.826c0.108 0.108 0.237 0.195 0.379 0.253s0.294 0.089 0.447 0.089c0.153 0 0.305-0.030 0.447-0.089s0.27-0.145 0.379-0.253l-0.826-0.826zM17.683 6.603l-0.825 0.825c0.108 0.109 0.237 0.195 0.379 0.253s0.294 0.089 0.447 0.089c0.153 0 0.305-0.030 0.447-0.089s0.27-0.145 0.379-0.253l-0.826-0.825zM18.508 29.096l-13.909-13.907-1.649 1.649 13.907 13.909 1.651-1.651zM30.767 15.189l-13.909 13.907 1.651 1.651 13.907-13.909-1.648-1.649zM14.609 5.178l2.248 2.25 1.651-1.651-2.25-2.248-1.649 1.649zM18.508 7.428l2.248-2.25-1.648-1.649-2.25 2.248 1.651 1.651zM25.76 0.773c-2.495 0-4.887 0.991-6.653 2.756l1.648 1.649c1.328-1.327 3.127-2.072 5.004-2.073v-2.332zM32.84 10.185c0 1.877-0.746 3.677-2.075 5.004l1.651 1.649c1.764-1.764 2.756-4.157 2.756-6.653h-2.332zM35.171 10.185c0-2.496-0.992-4.89-2.756-6.655s-4.159-2.756-6.655-2.756v2.332c1.878 0 3.678 0.746 5.006 2.074s2.073 3.128 2.073 5.006h2.332zM9.605 3.105c1.877 0 3.677 0.746 5.004 2.075l1.649-1.651c-1.764-1.764-4.157-2.756-6.653-2.756v2.332zM2.526 10.185c0-1.878 0.746-3.678 2.074-5.006s3.128-2.074 5.006-2.074v-2.332c-2.496 0-4.89 0.992-6.655 2.756s-2.756 4.159-2.756 6.655h2.332zM4.599 15.189c-0.658-0.657-1.177-1.437-1.533-2.296s-0.54-1.779-0.54-2.708h-2.332c0 2.495 0.991 4.888 2.756 6.653l1.649-1.649z"></path>
</symbol>
<symbol id="icon-star" viewBox="0 0 32 32">
<path fill="#e1e1e1" style="fill: var(--color4, #e1e1e1)" d="M16 0.7l3.763 11.582h12.178l-9.852 7.158 3.763 11.582-9.852-7.158-9.852 7.158 3.763-11.582-9.852-7.158h12.178l3.763-11.582z"></path>
</symbol>
<symbol id="icon-close-menu" viewBox="0 0 32 32">
<path stroke-linejoin="round" stroke-linecap="round" stroke-miterlimit="4" stroke-width="2.6667" d="M2.667 2.237l26.667 26.667M2.667 28.904l26.667-26.667"></path>
</symbol>
<symbol id="icon-menu-burger" viewBox="0 0 32 32">
<path stroke-linejoin="round" stroke-linecap="round" stroke-miterlimit="4" stroke-width="0.8" d="M6.4 9.601h19.2M6.4 16.001h19.2M6.4 22.401h19.2"></path>
</symbol>
<symbol id="icon-arrow-top" viewBox="0 0 25 32">
<path fill="none" stroke="#fff" style="stroke: var(--color3, #fff)" stroke-linejoin="round" stroke-linecap="round" stroke-miterlimit="4" stroke-width="3.3684" d="M12.632 3.743v25.85"></path>
<path fill="none" stroke="#fff" style="stroke: var(--color3, #fff)" stroke-linejoin="round" stroke-linecap="round" stroke-miterlimit="4" stroke-width="3.3684" d="M22.737 13.437l-9.415-10.99c-0.086-0.1-0.192-0.181-0.311-0.236s-0.248-0.084-0.378-0.084c-0.13 0-0.259 0.029-0.378 0.084s-0.225 0.136-0.311 0.236l-9.417 10.99"></path>
</symbol>
<symbol id="icon-instagram" viewBox="0 0 32 32">
<path fill="#fff" style="fill: var(--color3, #fff)" d="M23.734 9.864c0.99 0 1.792-0.802 1.792-1.792s-0.802-1.792-1.792-1.792c-0.99 0-1.792 0.802-1.792 1.792s0.802 1.792 1.792 1.792z"></path>
<path fill="#fff" style="fill: var(--color3, #fff)" d="M8.542 15.739c0 4.118 3.349 7.467 7.467 7.467s7.467-3.349 7.467-7.467c0-4.118-3.349-7.467-7.467-7.467s-7.467 3.349-7.467 7.467zM12.282 15.739c0-2.059 1.674-3.733 3.733-3.733s3.733 1.674 3.733 3.733c0 2.059-1.674 3.733-3.733 3.733s-3.733-1.674-3.733-3.733z"></path>
<path fill="#fff" style="fill: var(--color3, #fff)" d="M8.533 30.674h14.933c3.838 0 7.467-3.629 7.467-7.467v-14.933c0-3.838-3.629-7.467-7.467-7.467h-14.933c-3.838 0-7.467 3.629-7.467 7.467v14.933c0 3.838 3.629 7.467 7.467 7.467zM4.807 8.274c0-1.745 1.988-3.733 3.733-3.733h14.933c1.745 0 3.733 1.988 3.733 3.733v14.933c0 1.745-1.988 3.733-3.733 3.733h-14.933c-1.779 0-3.733-1.954-3.733-3.733v-14.933z"></path>
</symbol>
<symbol id="icon-viber" viewBox="0 0 30 32">
<path fill="#fff" style="fill: var(--color3, #fff)" d="M24.127 7.625c-1.161-1.173-2.544-2.103-4.069-2.736s-3.16-0.956-4.81-0.95c-6.916 0-12.553 5.637-12.553 12.553 0 2.217 0.583 4.37 1.672 6.27l-1.773 6.511 6.65-1.748c1.837 1.001 3.901 1.533 6.004 1.533 6.916 0 12.553-5.637 12.553-12.553 0-3.357-1.305-6.511-3.673-8.879zM15.248 26.929c-1.875 0-3.711-0.507-5.32-1.457l-0.38-0.228-3.952 1.039 1.051-3.851-0.253-0.393c-1.042-1.663-1.595-3.586-1.596-5.548 0-5.751 4.687-10.437 10.437-10.437 2.787 0 5.409 1.089 7.372 3.065 0.972 0.968 1.743 2.119 2.267 3.386s0.791 2.627 0.786 3.998c0.025 5.751-4.661 10.425-10.412 10.425zM20.973 19.126c-0.317-0.152-1.862-0.912-2.141-1.026-0.291-0.101-0.494-0.152-0.709 0.152-0.215 0.317-0.811 1.026-0.988 1.229-0.177 0.215-0.367 0.241-0.684 0.076-0.317-0.152-1.33-0.494-2.521-1.558-0.937-0.836-1.558-1.862-1.748-2.179-0.177-0.317-0.025-0.481 0.139-0.646 0.139-0.139 0.317-0.367 0.469-0.545s0.215-0.317 0.317-0.519c0.101-0.215 0.051-0.393-0.025-0.545s-0.709-1.697-0.963-2.331c-0.253-0.608-0.519-0.532-0.709-0.545h-0.608c-0.215 0-0.545 0.076-0.836 0.393-0.279 0.317-1.089 1.077-1.089 2.622s1.127 3.040 1.279 3.243c0.152 0.215 2.217 3.382 5.358 4.737 0.747 0.329 1.33 0.519 1.786 0.659 0.747 0.241 1.431 0.203 1.976 0.127 0.608-0.089 1.862-0.76 2.115-1.495 0.266-0.735 0.266-1.355 0.177-1.495s-0.279-0.203-0.595-0.355z"></path>
</symbol>
<symbol id="icon-facebook" viewBox="0 0 14 32">
<path fill="#fff" style="fill: var(--color3, #fff)" d="M3.101 31.647v-15.001h-3.101v-5.17h3.101v-3.104c0-4.217 1.751-6.725 6.727-6.725h4.142v5.17h-2.589c-1.937 0-2.065 0.722-2.065 2.071l-0.007 2.587h4.691l-0.549 5.17h-4.142v15.002h-6.208z"></path>
</symbol>
<symbol id="icon-call" viewBox="0 0 32 32">
<path fill="#eaeaea" style="fill: var(--color5, #eaeaea)" d="M22.469 19.446v2.514c0 0.18-0.068 0.353-0.191 0.485s-0.291 0.212-0.47 0.225c-0.311 0.021-0.565 0.033-0.761 0.033-6.284 0-11.378-5.094-11.378-11.378 0-0.196 0.011-0.45 0.033-0.761 0.013-0.18 0.093-0.348 0.225-0.47s0.305-0.191 0.485-0.191h2.514c0.088-0 0.173 0.033 0.239 0.092s0.107 0.14 0.115 0.228c0.016 0.164 0.031 0.294 0.046 0.393 0.141 0.986 0.431 1.945 0.859 2.845 0.068 0.142 0.023 0.312-0.105 0.403l-1.535 1.097c0.938 2.186 2.681 3.929 4.867 4.867l1.095-1.532c0.045-0.063 0.11-0.107 0.185-0.127s0.153-0.012 0.223 0.021c0.9 0.427 1.858 0.716 2.844 0.857 0.099 0.014 0.229 0.029 0.391 0.045 0.088 0.009 0.169 0.050 0.228 0.116s0.091 0.15 0.091 0.238z"></path>
</symbol>
<symbol id="icon-mail" viewBox="0 0 32 32">
<path fill="#eaeaea" style="fill: var(--color5, #eaeaea)" d="M22.736 10.969h-13.333v10.667h13.333v-10.667zM21.403 13.636l-5.333 3.333-5.333-3.333v-1.333l5.333 3.333 5.333-3.333v1.333z"></path>
</symbol>
<symbol id="icon-arrow-right" viewBox="0 0 31 32">
<path stroke-linejoin="round" stroke-linecap="round" stroke-miterlimit="4" stroke-width="0.5818" d="M18.669 20.715l4.19-4.209 0.623-0.59M23.482 15.917l-15.546-0M23.482 15.917l-4.813-4.795"></path>
</symbol>
<symbol id="icon-arrow-left" viewBox="0 0 31 32">
<path stroke-linejoin="round" stroke-linecap="round" stroke-miterlimit="4" stroke-width="0.5818" d="M12.749 20.715l-4.19-4.209-0.623-0.59M7.936 15.917l15.546-0M7.936 15.917l4.813-4.795"></path>
</symbol>
</defs>
</svg>
